<?xml version="1.0" standalone="no"?>
<!DOCTYPE svg PUBLIC "-//W3C//DTD SVG 20010904//EN"
 "http://www.w3.org/TR/2001/REC-SVG-20010904/DTD/svg10.dtd">
<svg version="1.0" xmlns="http://www.w3.org/2000/svg"
 width="527.000000pt" height="573.000000pt" viewBox="0 0 527.000000 573.000000"
 preserveAspectRatio="xMidYMid meet">
<metadata>
Created by potrace 1.14, written by Peter Selinger 2001-2017
</metadata>
<g transform="translate(0.000000,573.000000) scale(0.100000,-0.100000)"
fill="#000000" stroke="none">
<path d="M2444 5109 c-13 -21 34 -64 207 -188 230 -166 315 -232 468 -361 276
-235 561 -532 682 -713 113 -169 200 -380 235 -572 25 -136 15 -385 -20 -520
-102 -392 -409 -686 -779 -745 -106 -17 -283 -9 -394 20 -51 12 -91 26 -89 29
3 4 37 8 76 9 269 11 522 185 650 447 107 219 135 476 81 751 -27 141 -62 240
-136 389 -102 203 -222 356 -397 509 -59 50 -74 59 -113 61 -32 1 -45 -2 -45
-11 0 -18 39 -54 73 -66 40 -15 36 -42 -4 -33 l-32 7 7 -38 c5 -22 8 -47 9
-56 1 -10 5 -18 9 -18 4 0 3 -12 -3 -26 -8 -24 -8 -25 6 -14 8 7 19 10 23 6 4
-4 -1 -12 -11 -17 -9 -6 -17 -15 -17 -20 0 -6 4 -8 9 -5 10 6 16 -15 27 -96 5
-40 4 -48 -10 -48 -9 0 -16 5 -16 10 0 6 -8 10 -19 10 -19 0 -68 17 -136 49
-22 10 -56 26 -75 34 -19 9 -57 24 -85 32 -27 9 -59 20 -70 25 -101 43 -374
94 -482 89 -26 -1 -52 -1 -58 1 -20 5 -45 0 -45 -10 0 -5 15 -10 34 -10 19 0
38 -5 41 -10 4 -6 16 -8 26 -5 18 6 20 3 14 -29 -8 -41 -6 -42 35 -21 18 9 30
24 30 35 0 22 16 35 25 20 4 -6 1 -18 -7 -27 -7 -9 -12 -24 -10 -34 4 -21 -25
-38 -53 -32 -11 3 -36 5 -55 5 -19 0 -40 4 -46 9 -32 26 -184 -51 -184 -94 0
-4 5 -5 11 -1 6 3 4 -5 -5 -18 -9 -14 -28 -30 -42 -36 -33 -16 -37 -15 -30 3
5 14 -5 20 -27 16 -22 -4 8 20 36 29 l32 10 -37 -4 c-21 -3 -38 -1 -38 4 0 5
-8 6 -17 3 -15 -6 -15 -7 3 -14 10 -4 13 -8 6 -8 -7 -1 -11 -5 -8 -9 7 -12
-40 -79 -64 -92 -23 -12 -33 -13 -25 -1 11 18 -13 21 -44 5 -17 -8 -31 -21
-31 -29 0 -18 -32 -28 -41 -13 -6 9 -18 8 -51 -6 -75 -31 -253 -120 -256 -128
-2 -5 -11 -16 -20 -24 -15 -15 -14 -16 8 -10 22 6 23 6 8 -7 -16 -12 -16 -14
2 -27 13 -10 16 -17 9 -26 -14 -17 -44 -23 -60 -13 -11 7 -11 9 -1 9 7 0 10 5
7 10 -4 6 -12 7 -18 3 -7 -4 -6 0 2 10 10 13 10 17 1 17 -6 0 -14 -9 -17 -21
-4 -15 -8 -17 -14 -8 -6 10 -11 10 -23 0 -9 -8 -16 -9 -16 -3 0 11 -49 10 -68
-2 -7 -4 -11 -15 -8 -23 4 -8 1 -11 -5 -7 -11 7 -49 -28 -49 -46 0 -5 -5 -9
-12 -8 -6 2 -14 -8 -18 -22 -4 -16 -8 -21 -13 -13 -4 7 -14 10 -22 7 -8 -4
-12 -10 -9 -15 3 -5 1 -9 -5 -9 -5 0 -13 9 -16 21 -9 27 -41 21 -38 -8 4 -34
-20 -47 -42 -23 -29 32 -49 26 -41 -11 10 -51 -31 -80 -59 -42 -11 15 -15 15
-29 4 -9 -7 -16 -20 -16 -28 0 -8 -9 -26 -20 -41 -16 -20 -18 -27 -8 -33 19
-12 -7 -33 -59 -48 -39 -11 -45 -10 -65 9 -16 15 -24 17 -30 8 -5 -9 3 -18 22
-27 34 -17 35 -20 15 -47 -13 -17 -14 -17 -15 -1 0 21 -30 23 -30 1 0 -8 4
-12 10 -9 5 3 2 -8 -8 -24 -14 -25 -15 -34 -5 -50 9 -15 10 -22 1 -27 -8 -5
-9 -43 -4 -128 28 -495 217 -944 542 -1285 352 -370 1019 -756 1541 -891 136
-35 233 -40 233 -12 0 27 -58 77 -235 202 -453 319 -888 725 -1107 1032 -181
252 -279 574 -265 868 15 309 132 566 348 763 180 165 398 244 644 235 116 -5
305 -40 305 -57 0 -5 -44 -11 -97 -14 -333 -19 -604 -269 -705 -646 -29 -110
-36 -372 -14 -501 58 -331 221 -639 462 -871 106 -101 148 -131 190 -135 50
-4 56 20 13 56 -19 15 -37 26 -40 24 -11 -6 -31 24 -24 36 4 7 12 7 26 0 11
-6 23 -9 28 -6 7 5 6 40 -4 71 -1 6 -3 14 -3 19 0 5 -6 13 -14 17 -10 7 -10 9
2 9 11 1 10 4 -5 16 -19 14 -19 16 -2 25 9 6 15 15 12 20 -4 5 -10 7 -14 5 -8
-5 -11 5 -14 59 -1 19 -5 35 -9 35 -5 0 -8 11 -8 25 0 25 23 35 35 15 3 -5 15
-10 26 -10 11 0 53 -16 93 -35 41 -19 80 -35 88 -35 7 0 21 -7 32 -15 10 -7
44 -22 75 -31 31 -9 60 -21 65 -26 6 -4 19 -8 30 -8 12 0 44 -9 71 -19 28 -10
64 -22 80 -25 17 -3 51 -10 77 -15 81 -17 255 -24 263 -11 10 16 -15 31 -37
24 -21 -6 -22 0 -8 27 6 11 7 26 3 34 -7 12 -15 10 -43 -15 -19 -16 -31 -29
-26 -30 11 0 -14 -30 -25 -30 -14 0 -11 20 6 36 8 8 11 22 8 30 -3 9 0 20 8
24 18 12 137 11 145 -1 7 -12 28 -6 112 28 34 14 63 30 63 37 1 6 2 20 3 31 1
10 17 30 36 43 35 23 35 23 38 3 2 -12 8 -19 13 -16 5 4 9 1 9 -5 0 -6 -7 -13
-15 -16 -8 -4 -15 -10 -15 -16 0 -5 14 -1 30 9 17 9 30 23 30 30 0 21 63 93
81 93 5 0 8 -4 5 -9 -4 -5 -1 -11 6 -13 15 -5 68 13 68 23 0 4 7 15 16 24 12
12 20 13 29 5 10 -8 21 -7 44 4 16 9 37 16 45 16 27 0 216 105 233 129 15 22
15 23 -8 16 -22 -7 -23 -6 -5 7 17 13 17 16 2 30 -20 21 -20 25 3 38 24 12 60
2 39 -11 -10 -7 -9 -9 4 -9 11 0 15 -5 12 -15 -5 -13 -2 -13 24 0 16 8 44 13
62 11 38 -4 60 1 60 16 0 5 14 21 30 35 17 13 28 29 25 34 -4 5 0 6 8 3 8 -3
18 0 23 7 5 8 3 10 -7 4 -11 -6 -10 -4 1 8 8 9 22 17 30 19 8 2 21 10 28 18 8
8 11 9 7 2 -8 -15 12 -42 31 -42 7 0 14 14 16 32 4 40 24 47 40 14 15 -34 33
-28 34 12 1 52 42 82 62 45 14 -24 41 -9 49 28 3 17 12 33 19 36 17 6 18 30 2
35 -17 6 14 38 36 38 8 0 27 5 41 12 22 10 29 8 55 -17 24 -23 30 -25 30 -11
0 21 -21 44 -36 39 -7 -2 -14 3 -17 11 -7 17 17 46 36 45 8 0 8 -2 -1 -6 -15
-6 -6 -23 13 -23 19 0 19 289 -1 432 -65 465 -296 913 -622 1204 -398 356
-975 672 -1450 795 -116 30 -215 38 -228 18z m331 -1754 c104 -28 112 -35 167
-152 83 -176 106 -373 60 -519 -42 -137 -132 -238 -267 -301 -86 -39 -208 -44
-325 -13 -47 13 -93 27 -102 32 -27 13 -114 202 -137 297 -37 151 -24 316 34
431 13 25 44 69 69 97 127 141 297 184 501 128z"/>
</g>
</svg>
